<svg preserveAspectRatio="none" width="100%" height="100%" overflow="visible" style="display: block;" viewBox="0 0 11.666 11.666" fill="none" xmlns="http://www.w3.org/2000/svg">
<path id="Vector" d="M5.83301 11.666C5.02601 11.666 4.26799 11.513 3.55799 11.207C2.84799 10.9 2.231 10.485 1.706 9.96002C1.181 9.43502 0.764989 8.81797 0.458989 8.10797C0.152989 7.39797 4.8393e-06 6.64001 4.8393e-06 5.83301C-0.000995161 5.02601 0.152989 4.26798 0.458989 3.55798C0.765989 2.84798 1.182 2.23099 1.706 1.70599C2.23 1.18099 2.84699 0.765984 3.55799 0.458984C4.26899 0.152984 5.02701 0 5.83301 0C6.63901 0 7.39804 0.152984 8.10804 0.458984C8.81904 0.765984 9.43603 1.18099 9.96003 1.70599C10.484 2.23099 10.9 2.84798 11.207 3.55798C11.514 4.26798 11.668 5.02601 11.666 5.83301C11.665 6.64001 11.512 7.39797 11.207 8.10797C10.901 8.81797 10.486 9.43502 9.96003 9.96002C9.43403 10.485 8.81704 10.9 8.10804 11.207C7.39904 11.514 6.64101 11.667 5.83301 11.666ZM5.83301 10.5C7.13601 10.5 8.23901 10.048 9.14301 9.14301C10.048 8.23901 10.5 7.13601 10.5 5.83301C10.5 4.53001 10.048 3.42701 9.14301 2.52301C8.23901 1.61801 7.13601 1.16602 5.83301 1.16602C4.53001 1.16602 3.42702 1.61801 2.52302 2.52301C1.61802 3.42701 1.16602 4.53001 1.16602 5.83301C1.16602 7.13601 1.61802 8.23901 2.52302 9.14301C3.42702 10.048 4.53001 10.5 5.83301 10.5Z" fill="var(--fill-0, black)"/>
</svg>
